<?xml version="1.0" standalone="no"?>
<!DOCTYPE svg PUBLIC "-//W3C//DTD SVG 20010904//EN"
 "http://www.w3.org/TR/2001/REC-SVG-20010904/DTD/svg10.dtd">
<svg version="1.0" xmlns="http://www.w3.org/2000/svg"
 width="1196.000000pt" height="1196.000000pt" viewBox="0 0 1196.000000 1196.000000"
 preserveAspectRatio="xMidYMid meet">
<metadata>
Created by potrace 1.11, written by Peter Selinger 2001-2013
</metadata>
<g transform="translate(0.000000,1196.000000) scale(0.100000,-0.100000)"
fill="#000000" stroke="none">
<path d="M5709 9616 c-2 -2 -35 -7 -74 -10 -92 -7 -200 -21 -200 -26 0 -1 -16
-3 -35 -5 -54 -7 -82 -12 -122 -23 -20 -5 -39 -7 -42 -4 -3 3 -6 0 -6 -6 0 -7
-10 -10 -22 -8 -13 2 -31 -1 -41 -6 -10 -5 -31 -12 -45 -14 -15 -3 -54 -12
-87 -20 -33 -9 -67 -17 -75 -19 -8 -2 -55 -13 -105 -25 -49 -12 -101 -24 -115
-26 -14 -3 -34 -8 -45 -11 -24 -8 -19 -7 -72 -17 -24 -4 -45 -12 -49 -17 -3
-5 -9 -7 -13 -5 -4 3 -43 -4 -87 -16 -43 -11 -86 -21 -94 -23 -20 -5 -180 -44
-205 -51 -11 -3 -33 -8 -50 -11 -16 -3 -38 -9 -47 -14 -10 -5 -18 -8 -18 -5 0
3 -15 0 -32 -5 -18 -6 -44 -12 -58 -15 -14 -3 -33 -7 -42 -10 -9 -3 -25 -7
-35 -9 -67 -15 -191 -47 -203 -52 -8 -3 -25 -7 -37 -9 -13 -1 -32 -5 -42 -9
-11 -3 -28 -7 -38 -9 -10 -2 -72 -18 -138 -35 -66 -17 -129 -33 -141 -35 -11
-2 -74 -18 -140 -36 -65 -17 -130 -34 -144 -36 -14 -3 -43 -10 -65 -16 -22 -6
-44 -12 -50 -14 -9 -2 -61 -15 -115 -28 -8 -2 -51 -14 -95 -25 -44 -12 -89
-24 -100 -26 -11 -2 -67 -15 -125 -30 -58 -15 -109 -28 -115 -29 -5 -2 -28 -8
-50 -14 -22 -6 -51 -13 -65 -16 -14 -2 -61 -14 -105 -26 -44 -11 -89 -22 -100
-25 -11 -2 -53 -13 -93 -24 -40 -10 -76 -20 -80 -20 -4 -1 -25 -6 -47 -12 -22
-6 -47 -12 -55 -14 -8 -2 -41 -10 -72 -18 -36 -9 -60 -11 -66 -5 -5 5 -16 10
-25 12 -8 1 -21 7 -28 12 -8 6 -43 22 -79 36 -36 15 -92 38 -125 53 -33 15
-69 31 -80 35 -11 4 -36 15 -55 23 -19 9 -55 23 -80 32 -25 9 -56 22 -70 27
-14 6 -34 14 -45 19 -18 7 -77 24 -130 36 -74 17 -234 2 -310 -29 -16 -7 -32
-13 -35 -13 -3 0 -41 -22 -85 -49 -76 -48 -164 -127 -215 -195 -14 -18 -31
-39 -38 -47 -7 -8 -11 -14 -7 -14 4 0 -3 -12 -14 -26 -12 -15 -21 -32 -21 -40
0 -7 -4 -14 -9 -16 -10 -4 -74 -139 -86 -183 -5 -16 -9 -32 -10 -35 -6 -19
-17 -59 -20 -76 -2 -10 -4 -20 -5 -21 -5 -6 -20 -86 -27 -145 -9 -77 -11 -341
-2 -408 19 -137 56 -301 86 -380 4 -8 7 -17 7 -20 1 -3 5 -11 9 -17 5 -7 6
-13 2 -13 -3 0 1 -13 10 -30 8 -16 16 -32 16 -35 2 -42 201 -426 266 -511 12
-17 23 -34 23 -38 0 -4 5 -12 10 -19 6 -7 41 -53 78 -103 104 -142 201 -253
353 -404 109 -109 136 -133 339 -310 10 -8 32 -26 50 -40 18 -14 45 -36 61
-50 26 -24 52 -45 111 -90 15 -11 42 -51 61 -88 89 -177 145 -276 209 -372 39
-58 74 -107 77 -110 4 -3 59 -70 123 -150 63 -80 126 -156 138 -170 12 -14 40
-47 63 -75 23 -27 51 -59 63 -71 11 -12 30 -34 42 -49 26 -33 140 -159 242
-269 97 -105 375 -380 480 -476 45 -41 91 -84 103 -95 12 -11 49 -42 82 -70
32 -27 70 -59 83 -70 13 -11 36 -30 51 -43 14 -12 31 -26 36 -30 6 -4 44 -34
85 -67 93 -75 158 -123 285 -213 55 -39 105 -76 112 -82 7 -5 14 -10 17 -10 5
0 104 -64 121 -77 6 -5 39 -26 75 -48 36 -22 75 -46 85 -53 11 -6 27 -15 35
-19 8 -4 32 -17 54 -31 165 -103 680 -334 700 -314 3 3 6 1 6 -4 0 -5 21 -16
48 -23 26 -7 54 -15 62 -19 8 -3 18 -6 23 -7 4 -2 8 -3 10 -5 1 -1 9 -3 17 -5
8 -1 49 -12 90 -23 41 -12 86 -23 100 -26 14 -3 36 -8 50 -11 14 -3 36 -7 50
-10 14 -3 36 -7 50 -10 13 -2 40 -7 60 -10 20 -3 47 -8 60 -10 14 -3 48 -8 75
-11 28 -3 66 -7 85 -10 52 -7 533 -13 544 -6 5 3 30 7 55 8 53 4 125 12 161
18 14 3 45 7 70 11 25 3 88 15 140 26 52 11 110 23 128 26 17 3 32 9 32 12 0
4 10 8 23 9 26 3 47 7 67 15 8 3 74 24 145 47 72 23 144 48 160 55 56 26 270
116 280 118 6 1 13 6 16 10 3 5 12 9 20 10 8 2 19 5 24 9 50 30 105 57 105 51
0 -4 4 -3 8 2 4 6 32 23 62 39 91 49 124 67 153 88 15 11 27 16 27 13 0 -4 7
1 16 9 8 9 21 16 29 16 7 0 15 3 17 8 3 8 95 72 103 72 3 0 38 21 78 48 79 52
79 51 122 87 17 14 33 25 36 25 4 0 22 13 40 30 19 16 38 30 42 30 5 0 14 6
21 13 7 6 27 23 45 37 39 30 141 110 158 125 7 5 18 15 25 20 19 15 138 116
173 146 199 177 242 218 529 504 271 271 353 357 446 465 30 36 65 75 77 87
13 12 23 24 23 27 0 3 10 16 23 30 12 13 27 30 32 38 6 7 40 50 75 95 97 122
130 169 130 181 0 7 4 12 9 12 9 0 150 211 194 291 41 75 52 94 57 99 6 6 40
79 40 85 -1 3 6 13 15 21 8 9 13 19 10 23 -5 9 30 42 98 90 26 19 47 38 47 42
0 4 8 10 18 13 9 3 34 22 55 41 21 19 40 35 43 35 4 0 30 22 90 75 12 11 46
40 75 65 239 202 563 544 649 685 13 22 30 44 37 48 7 4 13 14 13 21 0 7 9 21
20 31 11 10 20 24 20 30 0 7 9 24 21 39 23 29 164 305 191 371 33 85 43 110
44 115 0 3 4 13 8 22 4 9 9 22 10 30 2 7 6 21 10 30 4 9 9 22 10 30 1 7 8 31
14 53 6 22 13 51 16 65 3 14 8 36 11 50 3 14 8 41 11 60 4 19 8 46 11 60 8 48
10 381 1 386 -4 3 -6 9 -3 14 8 12 -23 162 -52 254 -84 270 -264 495 -474 594
-37 18 -74 32 -82 32 -9 0 -18 4 -21 9 -8 12 -108 25 -191 23 -71 -1 -123 -10
-220 -40 -33 -10 -188 -68 -220 -82 -11 -5 -41 -18 -67 -29 -26 -12 -49 -21
-52 -21 -3 0 -29 -11 -58 -24 -65 -28 -91 -39 -100 -40 -3 -1 -10 -4 -14 -8
-4 -5 -16 -8 -26 -8 -10 0 -18 -4 -18 -9 0 -19 -84 -33 -130 -21 -25 6 -53 12
-63 15 -10 2 -26 6 -35 9 -9 3 -28 7 -42 10 -14 3 -43 10 -65 16 -22 6 -49 13
-60 16 -11 3 -24 6 -30 8 -5 2 -28 7 -50 11 -55 12 -55 12 -57 15 -2 1 -10 3
-18 5 -8 2 -44 11 -80 20 -36 9 -99 24 -141 34 -42 10 -81 21 -86 24 -5 3 -21
8 -36 11 -15 2 -73 17 -129 31 -57 15 -110 28 -118 30 -8 2 -53 13 -100 25
-47 12 -94 24 -105 26 -11 2 -59 15 -107 28 -48 13 -89 22 -92 19 -2 -3 -11
-1 -18 3 -7 5 -17 9 -23 11 -5 1 -44 11 -85 22 -41 11 -86 22 -100 25 -14 3
-70 17 -125 32 -55 14 -107 27 -115 29 -28 7 -295 76 -410 107 -63 16 -126 32
-139 35 -13 2 -32 8 -41 13 -10 5 -20 7 -23 4 -3 -3 -12 -2 -19 2 -7 5 -17 9
-23 10 -28 5 -78 18 -270 69 -115 31 -219 58 -230 59 -11 2 -27 6 -35 10 -8 3
-26 8 -40 10 -14 3 -38 8 -55 11 -16 3 -39 9 -50 12 -11 4 -22 7 -25 8 -3 0
-21 4 -40 8 -19 4 -44 9 -55 11 -11 2 -54 11 -95 20 -79 16 -128 25 -170 31
-14 3 -36 7 -50 10 -14 3 -47 7 -75 10 -27 3 -79 10 -115 15 -36 5 -90 11
-120 15 -65 7 -545 17 -551 11z m5481 -1291 c135 -24 263 -158 296 -310 10
-42 20 -155 15 -155 -3 0 -6 -21 -7 -48 -1 -73 -29 -201 -59 -267 -7 -16 -25
-59 -40 -95 -38 -92 -85 -189 -112 -232 -13 -21 -20 -38 -17 -38 4 0 0 -8 -8
-17 -8 -10 -39 -56 -68 -103 -29 -47 -56 -87 -60 -90 -3 -3 -20 -25 -37 -50
-36 -52 -91 -115 -185 -212 -36 -37 -64 -68 -61 -68 2 0 -10 -12 -28 -27 -18
-15 -54 -48 -79 -73 -26 -25 -77 -72 -115 -105 -37 -33 -74 -66 -81 -73 -12
-11 -14 -5 -15 40 -1 29 -3 71 -4 93 -2 22 -6 81 -9 130 -3 50 -8 119 -11 155
-2 36 -7 115 -10 175 -8 154 -12 192 -20 204 -3 6 -1 11 5 11 6 0 8 4 5 10 -3
5 -8 43 -10 83 -2 40 -7 113 -10 162 -3 50 -8 128 -11 175 -2 47 -7 119 -10
160 -11 155 -9 325 4 322 7 -1 12 2 12 8 0 6 7 10 15 10 8 0 39 11 70 24 30
14 55 22 55 18 0 -4 4 -2 8 4 4 6 45 25 92 43 47 18 99 39 117 47 17 8 36 14
43 14 6 0 25 8 43 17 18 9 37 18 42 19 6 1 30 10 55 19 25 10 65 20 90 22 25
3 47 7 49 9 2 2 7 2 11 -1 4 -2 22 -7 40 -10z m-10370 -9 c65 -7 191 -46 252
-77 10 -5 27 -9 38 -9 11 0 20 -4 20 -9 0 -5 12 -12 27 -16 15 -3 50 -17 78
-29 27 -12 66 -28 85 -35 19 -7 44 -17 55 -21 11 -4 35 -13 52 -20 18 -7 31
-16 28 -19 -2 -4 -5 -40 -7 -80 -1 -40 -6 -75 -10 -77 -4 -3 -3 -15 2 -28 5
-13 6 -26 4 -29 -3 -3 -8 -56 -10 -119 -3 -62 -7 -131 -9 -153 -2 -22 -6 -92
-10 -155 -3 -63 -8 -144 -10 -180 -12 -168 -16 -232 -20 -325 -3 -55 -8 -134
-10 -175 -6 -90 -17 -348 -17 -372 1 -26 -17 -22 -49 12 -16 16 -29 28 -29 26
0 -5 -258 255 -283 284 -22 26 -112 134 -120 145 -61 82 -107 148 -107 155 0
4 -3 10 -8 12 -8 3 -132 207 -132 217 0 4 -13 32 -30 64 -16 31 -27 57 -23 57
3 0 1 6 -5 13 -12 15 -62 160 -62 181 0 9 -4 16 -8 16 -7 0 -11 18 -13 63 0 9
-4 17 -9 17 -4 0 -7 6 -7 13 1 6 -3 48 -7 92 -16 147 -8 242 30 352 14 42 31
83 38 91 46 58 88 93 130 110 48 18 63 19 156 8z"/>
</g>
</svg>
